<svg width="92" height="92" viewBox="0 0 92 92" fill="none" xmlns="http://www.w3.org/2000/svg">
<circle cx="46" cy="46" r="46" fill="#008080" fill-opacity="0.08"/>
<g clip-path="url(#clip0_213_1600)">
<path d="M46.0307 23.0014C51.8921 23.0014 57.7534 22.9975 63.6148 23.0027C66.2653 23.0053 68.2966 24.5716 68.8583 27.0496C68.9589 27.4912 68.9954 27.9549 68.9954 28.4095C69.0033 40.1322 69.0033 51.8536 68.9994 63.5764C68.9994 66.2595 67.4318 68.3012 64.9394 68.8603C64.4978 68.9596 64.0328 68.9936 63.5795 68.9936C51.8568 69.0001 40.1354 69.0014 28.4126 68.9975C25.2292 68.9975 23.0072 66.7872 23.0046 63.6142C22.998 51.8758 22.9993 40.1374 23.0033 28.399C23.0046 25.2195 25.2187 23.0079 28.397 23.004C34.274 22.9975 40.1524 23.0027 46.0294 23.0027L46.0307 23.0014ZM66.8936 31.3774C66.6284 31.3774 66.4351 31.3774 66.2418 31.3774C61.1968 31.3774 56.1532 31.3839 51.1083 31.3748C48.0751 31.3696 45.7616 29.6975 44.7793 26.8289C44.6369 26.4122 44.4684 26.002 44.3678 25.5761C44.2803 25.2064 44.1078 25.098 43.7303 25.098C38.6201 25.1111 33.5111 25.1046 28.4009 25.1072C26.35 25.1072 25.1116 26.3468 25.1103 28.399C25.1077 40.1374 25.1077 51.8745 25.1103 63.6129C25.1103 65.6364 26.3539 66.8891 28.3669 66.8891C40.121 66.8917 51.8751 66.8917 63.6305 66.8878C63.9387 66.8878 64.2523 66.8669 64.5527 66.8055C65.6827 66.5743 66.9119 65.4783 66.908 63.5685C66.8805 53.0228 66.8949 42.4757 66.8949 31.93C66.8949 31.7693 66.8949 31.6086 66.8949 31.3761L66.8936 31.3774ZM66.9197 29.2703C66.8858 28.6316 66.9263 28.0372 66.8087 27.4755C66.4965 25.9941 65.2842 25.1098 63.6514 25.1085C58.0878 25.1046 52.5243 25.1072 46.9595 25.1072C46.8001 25.1072 46.6407 25.1072 46.4265 25.1072C46.5284 25.4324 46.6172 25.6911 46.6904 25.955C47.2756 28.0685 49.0456 29.3134 51.2912 29.2886C56.2838 29.2338 61.2765 29.2716 66.2692 29.2716H66.921L66.9197 29.2703Z" fill="#008080"/>
<rect x="24" y="24" width="44" height="44" rx="5" fill="#008080" fill-opacity="0.14"/>
<path d="M36.5699 47.0557C36.583 46.9146 36.5961 46.8362 36.5974 46.7566C36.6 46.5293 36.5974 46.302 36.5974 46.0028H34.2003C32.591 46.0028 32.4094 45.8199 32.4094 44.1949C32.4094 43.7704 32.3963 43.3458 32.4146 42.9213C32.4446 42.2773 32.8666 41.837 33.44 41.8227C34.0266 41.8083 34.4746 42.2629 34.5099 42.9265C34.5256 43.2348 34.5125 43.5431 34.5125 43.8853H36.5961C36.5961 42.7005 36.4628 41.4883 37.4256 40.5399C38.3726 39.6072 39.5627 39.7195 40.7566 39.7378V37.649C40.4235 37.649 40.1165 37.6608 39.8109 37.6464C39.1407 37.6151 38.6874 37.1827 38.6888 36.5949C38.6901 36.007 39.146 35.5681 39.8161 35.5498C40.4692 35.5315 41.1224 35.5276 41.7755 35.5511C42.4627 35.5759 42.8572 35.9913 42.865 36.6785C42.8754 37.6726 42.8676 38.6666 42.8676 39.6973H44.9498C44.9498 39.5353 44.9498 39.3655 44.9498 39.1944C44.9498 37.6765 44.9485 36.1572 44.9511 34.6393C44.9511 34.1429 45.1314 33.7471 45.6187 33.546C46.0249 33.3774 46.439 33.4323 46.6924 33.7602C46.8949 34.0201 47.0308 34.4003 47.0386 34.7308C47.0752 36.1991 47.0543 37.6686 47.0543 39.1382C47.0543 39.3159 47.0543 39.4922 47.0543 39.7012H49.1365C49.1365 38.7947 49.1365 37.8868 49.1365 36.9789C49.1365 35.8829 49.4722 35.5459 50.5643 35.5446C51.1025 35.5446 51.642 35.5315 52.1802 35.5485C52.8543 35.5694 53.3088 35.9979 53.3141 36.587C53.3206 37.1775 52.8686 37.6125 52.1985 37.6464C51.8928 37.6608 51.5845 37.649 51.2488 37.649V39.7326C52.4336 39.73 53.6289 39.6007 54.5733 40.536C55.523 41.4765 55.4224 42.6652 55.4028 43.8788H57.489C57.489 43.5849 57.4799 43.2831 57.4903 42.9814C57.5151 42.2851 57.9567 41.8109 58.5589 41.8227C59.1441 41.8344 59.5725 42.2942 59.5908 42.967C59.6078 43.5875 59.6065 44.208 59.5908 44.8285C59.5725 45.6005 59.165 45.995 58.393 46.0002C57.4172 46.0067 56.44 46.0015 55.4342 46.0015V47.0544C55.6158 47.0544 55.7895 47.0544 55.9646 47.0544C57.4498 47.0544 58.9364 47.0518 60.4216 47.0557C61.2041 47.0583 61.6861 47.4711 61.6718 48.1112C61.6587 48.733 61.1793 49.134 60.4308 49.1353C58.9285 49.1379 57.4263 49.1353 55.9254 49.1353H55.4316V50.1882C56.3826 50.1882 57.31 50.1869 58.2362 50.1882C59.2447 50.1908 59.5895 50.5357 59.5934 51.5402C59.5961 52.0954 59.6052 52.6506 59.5895 53.2058C59.5699 53.9164 59.1441 54.3553 58.5171 54.3435C57.9175 54.3331 57.5151 53.8942 57.4903 53.2084C57.4799 52.9171 57.489 52.6244 57.489 52.3005H55.4094C55.4015 53.4696 55.5413 54.6819 54.5812 55.6329C53.6354 56.5695 52.4441 56.4558 51.2488 56.4611V58.5394C51.5898 58.5394 51.9124 58.5302 52.2338 58.542C52.8634 58.5642 53.3115 58.9992 53.3154 59.5779C53.3193 60.1526 52.8738 60.5981 52.2416 60.6138C51.5728 60.6308 50.9026 60.6294 50.2338 60.6151C49.5428 60.5994 49.1457 60.1984 49.1378 59.506C49.1261 58.5132 49.1352 57.5191 49.1352 56.4911H47.053C47.053 56.6674 47.053 56.8399 47.053 57.0123C47.053 58.5145 47.0621 60.0168 47.0491 61.5177C47.0412 62.4073 46.3228 62.9481 45.5952 62.6281C45.0975 62.4099 44.9446 61.9815 44.9459 61.4668C44.9498 59.9972 44.9472 58.5276 44.9472 57.0593C44.9472 56.883 44.9472 56.7053 44.9472 56.4924H42.865C42.865 57.3794 42.865 58.2716 42.865 59.1638C42.865 60.3159 42.5645 60.619 41.4215 60.619C40.8664 60.619 40.3112 60.6294 39.756 60.6125C39.1277 60.5942 38.6796 60.1474 38.6848 59.574C38.6888 58.9966 39.1381 58.5616 39.7678 58.5394C40.0891 58.5276 40.4118 58.5368 40.7566 58.5368V56.4532C40.3843 56.4532 40.0173 56.4545 39.6515 56.4532C37.7587 56.4441 36.5987 55.2854 36.5948 53.3991C36.5948 53.0425 36.5948 52.6858 36.5948 52.2966H34.5125C34.5125 52.5983 34.5217 52.9014 34.5112 53.2044C34.4838 53.9125 34.0618 54.3527 33.4348 54.3396C32.8352 54.3279 32.429 53.8876 32.412 53.2005C32.3963 52.58 32.3976 51.9595 32.412 51.3391C32.4303 50.5801 32.8169 50.1934 33.5694 50.1856C34.5609 50.1751 35.5523 50.183 36.5699 50.183V49.1288C35.8227 49.1288 35.0925 49.1288 34.3623 49.1288C33.4152 49.1288 32.4682 49.1327 31.5211 49.1275C30.8131 49.1236 30.3415 48.7134 30.3284 48.1047C30.3141 47.4763 30.787 47.0518 31.5289 47.0492C33.0142 47.0426 34.5008 47.0466 35.986 47.0466C36.1637 47.0466 36.3413 47.0466 36.5673 47.0466L36.5699 47.0557ZM46.004 54.354C48.1098 54.354 50.2142 54.3553 52.32 54.354C53.1181 54.354 53.3258 54.1424 53.3271 53.3312C53.3284 49.8381 53.3284 46.3464 53.3271 42.8533C53.3271 42.033 53.1051 41.8161 52.2716 41.8148C48.0941 41.8148 43.9153 41.8148 39.7377 41.8148C38.903 41.8148 38.6822 42.0304 38.6822 42.852C38.6809 46.3451 38.6809 49.8368 38.6822 53.3298C38.6822 54.1411 38.8912 54.3527 39.6881 54.354C41.7938 54.3566 43.8983 54.354 46.004 54.354Z" fill="#008080"/>
<path d="M35.5341 28.2274C35.538 28.8074 35.1121 29.2516 34.5347 29.2659C33.9417 29.2816 33.4662 28.8283 33.461 28.2444C33.457 27.6683 33.9417 27.1863 34.5178 27.1954C35.0821 27.2046 35.5288 27.6579 35.5328 28.2274H35.5341Z" fill="#008080"/>
<path d="M38.7013 29.2672C38.103 29.2737 37.6524 28.823 37.6563 28.2247C37.6615 27.6578 38.1109 27.2019 38.6739 27.1954C39.2487 27.1888 39.7346 27.6722 39.7281 28.2469C39.7215 28.8087 39.2656 29.2619 38.7 29.2685L38.7013 29.2672Z" fill="#008080"/>
<path d="M30.3331 29.2671C29.7466 29.2697 29.2684 28.7942 29.2815 28.2182C29.2933 27.6617 29.7622 27.1993 30.32 27.1953C30.8987 27.1914 31.382 27.6774 31.3703 28.2521C31.3598 28.8151 30.9026 29.2632 30.3331 29.2658V29.2671Z" fill="#008080"/>
<path d="M44.9445 50.2118H42.861C42.861 50.5593 42.8728 50.882 42.8584 51.2046C42.831 51.8225 42.3764 52.2719 41.8029 52.264C41.2464 52.2562 40.7957 51.8212 40.7892 51.2229C40.7761 49.7546 40.7566 48.2851 40.801 46.8181C40.8467 45.2949 42.1582 44.0108 43.6683 43.9272C45.3116 43.8358 46.7825 44.9213 46.9654 46.4902C47.0908 47.5705 47.032 48.6717 47.0503 49.7638C47.0581 50.204 47.0608 50.6455 47.049 51.0858C47.0307 51.8016 46.6192 52.2575 46.0066 52.264C45.3952 52.2693 44.9707 51.8108 44.9472 51.104C44.938 50.8271 44.9459 50.5502 44.9459 50.2132L44.9445 50.2118ZM44.9315 48.0565C44.9315 47.6437 44.9537 47.2857 44.9263 46.9317C44.8871 46.4144 44.4717 46.0317 43.9648 46.0016C43.4697 45.9729 42.9694 46.3178 42.8989 46.8168C42.8414 47.223 42.8871 47.6437 42.8871 48.0565H44.9315Z" fill="#008080"/>
<path d="M49.1359 48.106C49.1359 47.1288 49.1332 46.1504 49.1359 45.1733C49.1385 44.3843 49.5317 43.9193 50.1848 43.9219C50.8288 43.9245 51.2129 44.3673 51.2142 45.1367C51.2194 47.1079 51.2194 49.0805 51.2142 51.0517C51.2116 51.7963 50.7962 52.2691 50.1718 52.2652C49.5539 52.2613 49.1385 51.7754 49.1346 51.0399C49.1306 50.0628 49.1346 49.0844 49.1346 48.1073L49.1359 48.106Z" fill="#008080"/>
</g>
<defs>
<clipPath id="clip0_213_1600">
<rect width="46" height="46" fill="white" transform="translate(23 23)"/>
</clipPath>
</defs>
</svg>
