<svg width="92" height="92" viewBox="0 0 92 92" fill="none" xmlns="http://www.w3.org/2000/svg">
<circle cx="46" cy="46" r="46" fill="#008080" fill-opacity="0.08"/>
<g clip-path="url(#clip0_213_1664)">
<path d="M24 24L49 27.5814V68H24V24Z" fill="#008080" fill-opacity="0.14"/>
<path d="M23 25.3416C23.2324 24.7039 23.4923 24.094 24.0398 23.6435C24.9406 22.9008 25.9505 22.931 27.019 23.0977C32.0706 23.8887 37.1258 24.6568 42.1798 25.4333C43.8797 25.6942 45.5807 25.9454 47.277 26.2244C48.9193 26.4949 49.8369 27.6048 49.8393 29.3004C49.8441 32.7254 49.8405 36.1504 49.8405 39.5755C49.8405 39.7554 49.8405 39.9366 49.8405 40.1769C50.582 40.3315 51.3211 40.4897 52.0615 40.6383C56.8543 41.5996 61.6448 42.573 66.4412 43.5102C67.8177 43.7795 68.637 44.5741 69 45.9038V66.5554C68.9006 66.8332 68.8227 67.1231 68.6969 67.3876C68.2669 68.2885 67.5002 68.7535 66.5742 69.001H25.4258C24.6819 68.7909 23.9907 68.4805 23.5594 67.7994C23.333 67.4419 23.1845 67.0325 23 66.646V25.3416ZM47.9095 67.0482V66.4637C47.9095 54.1488 47.9095 41.8327 47.9095 29.5178C47.9095 29.3825 47.9131 29.246 47.9059 29.1108C47.8795 28.5649 47.616 28.24 47.0853 28.1374C46.6014 28.0432 46.1126 27.9695 45.6239 27.8958C39.1623 26.9164 32.6995 25.9382 26.2368 24.9575C25.3479 24.8222 24.9095 25.1942 24.9095 26.1169C24.9083 39.3678 24.9083 52.6198 24.9095 65.8707C24.9095 66.7149 25.2748 67.0711 26.1242 67.0736C27.4862 67.0772 28.8482 67.0748 30.2115 67.0736C30.3432 67.0736 30.475 67.0591 30.6583 67.0482C30.6583 66.8501 30.6583 66.6738 30.6583 66.4963C30.6583 63.855 30.6535 61.2138 30.6595 58.5726C30.6643 56.6898 31.8538 55.4869 33.7178 55.4809C35.4991 55.4748 37.2804 55.4772 39.0617 55.4809C40.9987 55.4845 42.1547 56.6523 42.1571 58.6136C42.1607 61.2392 42.1571 63.8659 42.1571 66.4914C42.1571 66.6678 42.1571 66.8453 42.1571 67.0482H47.9071H47.9095ZM49.8669 67.0748H50.4023C55.5079 67.0748 60.6146 67.0748 65.7201 67.0748C66.7851 67.0748 67.0905 66.7704 67.0905 65.7076C67.0905 59.3974 67.0905 53.0872 67.0905 46.777C67.0905 45.806 66.8785 45.5475 65.9525 45.3628C61.5957 44.4944 57.2401 43.6237 52.8844 42.7566C51.8902 42.5585 50.8947 42.3689 49.8669 42.1684V67.0736V67.0748ZM40.25 67.0566V66.6533C40.25 63.9686 40.25 61.2838 40.25 58.5991C40.25 57.7453 39.905 57.4071 39.0413 57.4059C37.3055 57.4047 35.5709 57.4059 33.8352 57.4059C32.8972 57.4059 32.5929 57.7079 32.5929 58.6462C32.5917 61.3008 32.5929 63.9553 32.5929 66.6098C32.5929 66.7535 32.6109 66.8972 32.6217 67.0566H40.2512H40.25Z" fill="#008080"/>
<path d="M49 41L68 45V68H49V41Z" fill="#008080" fill-opacity="0.14"/>
<path d="M31.6288 34.2156C31.031 34.2156 30.4333 34.2205 29.8355 34.2156C29.1851 34.2096 28.761 33.8352 28.7502 33.2688C28.7394 32.6939 29.1503 32.3002 29.8008 32.2954C31.0107 32.2869 32.2206 32.2869 33.4317 32.2954C34.0833 32.299 34.499 32.6867 34.4954 33.2567C34.4918 33.8256 34.0678 34.2096 33.4221 34.2156C32.8243 34.2217 32.2266 34.2169 31.6288 34.2169V34.2156Z" fill="#008080"/>
<path d="M31.6407 38.0897C32.2529 38.0897 32.8662 38.0812 33.4783 38.0921C34.0929 38.1042 34.5002 38.4991 34.4942 39.0546C34.4894 39.6078 34.0737 40.0051 33.4628 40.0099C32.2373 40.0184 31.013 40.0184 29.7876 40.0099C29.1754 40.0063 28.7585 39.6138 28.7502 39.0619C28.7406 38.4882 29.1527 38.1005 29.8031 38.0909C30.4153 38.0812 31.0286 38.0885 31.6407 38.0897Z" fill="#008080"/>
<path d="M31.6179 43.8872C32.2456 43.8872 32.8733 43.8775 33.4998 43.8908C34.0916 43.9029 34.4857 44.2881 34.4929 44.8304C34.5 45.3859 34.088 45.8014 33.4842 45.8074C32.2444 45.8183 31.0045 45.8171 29.7647 45.8074C29.1609 45.8026 28.7452 45.3907 28.75 44.8364C28.7536 44.2772 29.1549 43.8992 29.7814 43.8884C30.3936 43.8775 31.0069 43.8859 31.6191 43.8859L31.6179 43.8872Z" fill="#008080"/>
<path d="M31.6239 51.6069C31.0118 51.6069 30.3985 51.6141 29.7863 51.6045C29.1742 51.596 28.7585 51.2059 28.7501 50.654C28.7417 50.0936 29.143 49.6927 29.7612 49.6878C31.001 49.677 32.2409 49.677 33.4807 49.6878C34.0952 49.6927 34.5013 50.096 34.4941 50.6528C34.487 51.2059 34.0725 51.59 33.4603 51.6081C33.446 51.6081 33.4304 51.6081 33.416 51.6081C32.8183 51.6081 32.2205 51.6081 31.6227 51.6081L31.6239 51.6069Z" fill="#008080"/>
<path d="M41.1769 34.2161C40.5792 34.2161 39.9814 34.2221 39.3848 34.2149C38.7392 34.2064 38.3367 33.82 38.3438 33.233C38.3522 32.6618 38.7344 32.3007 39.3753 32.2959C40.5851 32.2862 41.795 32.2874 43.0049 32.2959C43.6578 32.2995 44.0783 32.6823 44.0807 33.2487C44.0831 33.8188 43.659 34.2101 43.0145 34.2173C42.4024 34.2246 41.7903 34.2185 41.1769 34.2185V34.2161Z" fill="#008080"/>
<path d="M41.2225 38.0909C41.8346 38.0909 42.4479 38.0824 43.0601 38.0933C43.6722 38.1054 44.0855 38.5051 44.0807 39.0546C44.0759 39.609 43.6614 40.0075 43.0493 40.0111C41.825 40.0196 40.5996 40.0196 39.3753 40.0111C38.7524 40.0075 38.3523 39.6283 38.3439 39.0643C38.3355 38.4701 38.7224 38.1018 39.3861 38.0909C39.9982 38.0812 40.6103 38.0885 41.2237 38.0897L41.2225 38.0909Z" fill="#008080"/>
<path d="M41.202 45.8112C40.5899 45.8112 39.9765 45.8184 39.3644 45.8088C38.7475 45.7991 38.3474 45.4151 38.3438 44.8511C38.3414 44.275 38.7211 43.8958 39.3524 43.891C40.5923 43.8801 41.8321 43.8801 43.0719 43.891C43.6793 43.897 44.0938 44.3125 44.0818 44.862C44.0698 45.4163 43.6553 45.7991 43.0396 45.8088C42.4275 45.8172 41.8153 45.8112 41.202 45.8112Z" fill="#008080"/>
<path d="M41.202 51.6081C40.5899 51.6081 39.9765 51.6153 39.3644 51.6057C38.7475 51.596 38.3474 51.212 38.3438 50.648C38.3414 50.0719 38.7211 49.6927 39.3524 49.6878C40.5923 49.677 41.8321 49.677 43.0719 49.6878C43.6793 49.6939 44.0938 50.1093 44.0818 50.6588C44.0698 51.2132 43.6553 51.59 43.0396 51.6069C43.0252 51.6069 43.0096 51.6069 42.9953 51.6069C42.3975 51.6069 41.7998 51.6069 41.2032 51.6069L41.202 51.6081Z" fill="#008080"/>
<path d="M58.452 51.6081C57.8399 51.6081 57.2265 51.6153 56.6144 51.6057C55.9975 51.596 55.5974 51.212 55.5938 50.648C55.5914 50.0719 55.9711 49.6927 56.6024 49.6878C57.8422 49.677 59.0821 49.677 60.3219 49.6878C60.9293 49.6939 61.3438 50.1093 61.3318 50.6588C61.3198 51.2132 60.9053 51.59 60.2896 51.6069C60.2752 51.6069 60.2596 51.6069 60.2453 51.6069C59.6475 51.6069 59.0498 51.6069 58.4532 51.6069L58.452 51.6081Z" fill="#008080"/>
<path d="M58.4269 57.4036C57.8292 57.4036 57.2314 57.4096 56.6348 57.4024C55.9892 57.3939 55.5867 57.0075 55.5938 56.4205C55.6022 55.8493 55.9844 55.4882 56.6253 55.4834C57.8351 55.4737 59.045 55.4749 60.2549 55.4834C60.9078 55.487 61.3283 55.8698 61.3307 56.4362C61.3331 57.0063 60.909 57.3976 60.2645 57.4048C59.6524 57.4121 59.0403 57.406 58.4269 57.406V57.4036Z" fill="#008080"/>
<path d="M58.4969 61.2771C59.1091 61.2771 59.7224 61.2674 60.3345 61.2795C60.9251 61.2916 61.324 61.6744 61.336 62.2131C61.3492 62.7686 60.9371 63.1901 60.3333 63.1961C59.0791 63.207 57.8237 63.2082 56.5695 63.1961C55.9873 63.1901 55.6004 62.7855 55.6016 62.2348C55.6016 61.6756 55.9729 61.2964 56.5719 61.2831C57.214 61.2686 57.856 61.2795 58.4981 61.2795L58.4969 61.2771Z" fill="#008080"/>
</g>
<defs>
<clipPath id="clip0_213_1664">
<rect width="46" height="46" fill="white" transform="translate(23 23)"/>
</clipPath>
</defs>
</svg>
