<svg width="22" height="22" viewBox="0 0 22 22" fill="none" xmlns="http://www.w3.org/2000/svg">
<g clip-path="url(#clip0_758_668)">
<path d="M19.0741 3.81981C18.7157 3.4559 18.1351 3.4559 17.7766 3.81981C17.4182 4.18373 17.4182 4.77324 17.7766 5.13716C20.9587 8.37577 20.9587 13.6185 17.7766 16.8571C17.4182 17.2211 17.4182 17.8106 17.7766 18.1745C18.1351 18.5384 18.7157 18.5384 19.0741 18.1745C22.9717 14.208 22.9717 7.78669 19.0741 3.82025V3.81981Z" fill="#008080"/>
<path d="M16.5934 6.61827C16.235 6.25304 15.6535 6.25217 15.2938 6.61609C14.9341 6.98001 14.9332 7.57039 15.2917 7.93562C16.9579 9.62997 16.9579 12.3742 15.2917 14.0681C14.9332 14.4333 14.9345 15.0237 15.2938 15.3876C15.6531 15.7516 16.235 15.7502 16.5934 15.3855C18.9748 12.9633 18.9748 9.0409 16.5934 6.61827Z" fill="#008080"/>
<path d="M12.671 0.0152723C9.88302 0.547186 7.40324 2.14685 5.74518 4.48352H4.58437C2.05431 4.48788 0.00386794 6.56928 0 9.13809V12.8615C0.00386794 15.4303 2.05431 17.5117 4.58437 17.516H5.74518C7.40367 19.8523 9.88345 21.4519 12.671 21.9843C12.7255 21.9952 12.7814 22.0004 12.8368 22C13.3431 22 13.7535 21.5833 13.7535 21.0693V0.933357C13.7548 0.419334 13.3453 0.00130906 12.839 0C12.7827 0 12.7264 0.00479987 12.6705 0.0152723H12.671ZM11.9193 19.8758C9.89721 19.2213 8.15835 17.8804 6.99496 16.0778C6.82606 15.8138 6.53725 15.6546 6.22739 15.6541H4.58437C3.06513 15.6541 1.83383 14.404 1.83383 12.8615V9.13809C1.83383 7.59558 3.06513 6.34543 4.58437 6.34543H6.23469C6.54413 6.34543 6.83294 6.1866 7.00227 5.92392C8.16308 4.12178 9.89935 2.78044 11.9193 2.12416V19.8758Z" fill="#008080"/>
</g>
<defs>
<clipPath id="clip0_758_668">
<rect width="22" height="22" fill="white"/>
</clipPath>
</defs>
</svg>
