<svg width="22" height="16" viewBox="0 0 22 16" fill="none" xmlns="http://www.w3.org/2000/svg">
<path d="M17.4165 0.664062H4.58348C2.05262 0.664062 0 2.71539 0 5.24754V10.7475C0 13.2784 2.05262 15.331 4.58348 15.331H17.4165C19.9439 15.331 22 13.275 22 10.7475V5.24754C22 2.72012 19.9439 0.664062 17.4165 0.664062ZM7.4452 11.6641H7.44348C7.14484 11.6641 6.88531 11.4578 6.81828 11.1665L6.57551 10.106H4.36734L4.11598 11.1704C4.04723 11.46 3.78984 11.6645 3.49164 11.6645C3.07828 11.6645 2.77277 11.2786 2.8673 10.876L4.16238 5.38246C4.34672 4.58883 5.2048 4.09383 6.04699 4.4466C6.44961 4.61547 6.71988 5.00219 6.81871 5.42758L8.06824 10.8799C8.15977 11.2812 7.85555 11.6645 7.44305 11.6645H7.44477L7.4452 11.6641ZM20.1665 10.7475C20.1665 12.2639 18.9329 13.4975 17.4165 13.4975H11V2.49754H17.4165C18.9329 2.49754 20.1665 3.73117 20.1665 5.24754V10.7475ZM18.7915 5.81215V5.83148C18.7915 6.14301 18.5384 6.39609 18.2269 6.39609H17.9373C17.8264 7.56484 17.3718 8.89945 16.4643 9.93973C16.9611 10.2414 17.557 10.4566 18.2832 10.5254C18.572 10.5529 18.792 10.7965 18.792 11.0874V11.1068C18.792 11.4423 18.5023 11.7006 18.1685 11.6688C17.1261 11.5687 16.2809 11.2206 15.5946 10.7321C14.9046 11.2254 14.0491 11.5708 12.9985 11.6688C12.6646 11.7002 12.3759 11.4415 12.3759 11.1059V11.0866C12.3759 10.7922 12.6032 10.5512 12.8966 10.5237C13.6189 10.4549 14.2149 10.2422 14.7091 9.94144C14.4057 9.59383 14.1526 9.21355 13.9455 8.81652C13.7504 8.44269 14.0271 7.99539 14.4487 7.99539H14.4577C14.6648 7.99539 14.8582 8.10711 14.9536 8.29059C15.1233 8.61328 15.3347 8.92394 15.5886 9.20926C16.3384 8.36578 16.6813 7.27695 16.7832 6.39437H12.9413C12.6298 6.39437 12.3767 6.14129 12.3767 5.82977V5.81043C12.3767 5.49891 12.6298 5.24582 12.9413 5.24582H15.0103V4.89391C15.0103 4.58238 15.2634 4.3293 15.5749 4.3293H15.5942C15.9057 4.3293 16.1588 4.58238 16.1588 4.89391V5.24582H18.2278C18.5393 5.24582 18.7924 5.49891 18.7924 5.81043L18.7915 5.81215ZM5.5593 5.67207L6.28074 8.82254H4.67027L5.41363 5.67207C5.4218 5.63812 5.45102 5.61449 5.48625 5.61449C5.52148 5.61449 5.55113 5.63812 5.55887 5.67207H5.55973H5.5593Z" fill="#008080"/>
</svg>
