<svg width="22" height="22" viewBox="0 0 22 22" fill="none" xmlns="http://www.w3.org/2000/svg">
<g clip-path="url(#clip0_758_661)">
<path d="M21.9999 10.3216C21.6248 4.25803 16.4005 -0.353423 10.3315 0.0213139C4.2621 0.39605 -0.353761 5.61532 0.0213342 11.6785C0.380102 17.4811 5.19705 22.0029 11.0164 21.9999H17.4171C19.9474 21.9973 21.9977 19.9489 22.0003 17.421V10.3216H21.9999ZM20.1665 17.4215C20.1665 18.9389 18.9355 20.1687 17.4166 20.1687H11.016C8.40018 20.1674 5.90814 19.0543 4.16328 17.1072C2.4094 15.1606 1.58187 12.552 1.8938 9.95162C2.39436 5.78101 5.65979 2.47921 9.82838 1.92891C10.2237 1.87954 10.6215 1.85422 11.0198 1.85379C13.1561 1.84778 15.2258 2.59382 16.8671 3.96013C18.8036 5.5681 19.9963 7.89894 20.1669 10.4088V17.4215H20.1665Z" fill="#008080"/>
<path d="M7.33053 8.26087H10.9968C11.503 8.26087 11.9133 7.85094 11.9133 7.34528C11.9133 6.83962 11.503 6.42969 10.9968 6.42969H7.33053C6.82439 6.42969 6.41406 6.83962 6.41406 7.34528C6.41406 7.85094 6.82439 8.26087 7.33053 8.26087Z" fill="#008080"/>
<path d="M14.6636 10.0938H7.33053C6.82439 10.0938 6.41406 10.5037 6.41406 11.0093C6.41406 11.515 6.82439 11.9249 7.33053 11.9249H14.6636C15.1697 11.9249 15.58 11.515 15.58 11.0093C15.58 10.5037 15.1697 10.0938 14.6636 10.0938Z" fill="#008080"/>
<path d="M14.6636 13.7578H7.33053C6.82439 13.7578 6.41406 14.1677 6.41406 14.6734C6.41406 15.1791 6.82439 15.589 7.33053 15.589H14.6636C15.1697 15.589 15.58 15.1791 15.58 14.6734C15.58 14.1677 15.1697 13.7578 14.6636 13.7578Z" fill="#008080"/>
</g>
<defs>
<clipPath id="clip0_758_661">
<rect width="22" height="22" fill="white"/>
</clipPath>
</defs>
</svg>
