<svg width="26" height="26" viewBox="0 0 26 26" fill="none" xmlns="http://www.w3.org/2000/svg">
<g clip-path="url(#clip0_205_1975)">
<mask id="mask0_205_1975" style="mask-type:luminance" maskUnits="userSpaceOnUse" x="0" y="0" width="26" height="27">
<path d="M26 0.0390625H0V26.0391H26V0.0390625Z" fill="white"/>
</mask>
<g mask="url(#mask0_205_1975)">
<path d="M16.8425 6.5C16.8425 2.92 13.9225 0 10.3325 0C6.7425 0 3.8125 2.92 3.8125 6.5C3.8125 10.08 6.7325 13 10.3225 13C13.9125 13 16.8325 10.08 16.8325 6.5H16.8425ZM10.3325 10.83C7.9325 10.83 5.9925 8.89 5.9925 6.5C5.9925 4.11 7.9425 2.17 10.3325 2.17C12.7225 2.17 14.6725 4.11 14.6725 6.5C14.6725 8.89 12.7225 10.83 10.3325 10.83ZM10.3325 16.18C10.4025 16.77 9.9825 17.31 9.3925 17.39C5.6025 17.86 2.7425 21.1 2.7425 24.91C2.7425 25.51 2.2525 25.99 1.6525 25.99C1.0525 25.99 0.5625 25.51 0.5625 24.91C0.5625 20 4.2425 15.84 9.1125 15.24C9.7025 15.17 10.2525 15.59 10.3225 16.18H10.3325ZM25.2125 20.72L24.1525 20.11C24.3325 19.57 24.4525 19.01 24.4525 18.41C24.4525 17.81 24.3325 17.25 24.1525 16.71L25.2125 16.1C25.7325 15.8 25.9125 15.14 25.6125 14.62C25.3125 14.1 24.6525 13.92 24.1325 14.22L23.0725 14.83C22.3025 13.97 21.2925 13.34 20.1125 13.1V11.91C20.1125 11.31 19.6225 10.83 19.0225 10.83C18.4225 10.83 17.9325 11.32 17.9325 11.91V13.1C16.7625 13.34 15.7425 13.97 14.9725 14.83L13.9125 14.22C13.3925 13.92 12.7325 14.1 12.4325 14.62C12.1325 15.14 12.3125 15.8 12.8325 16.1L13.8925 16.71C13.7125 17.25 13.5925 17.81 13.5925 18.41C13.5925 19.01 13.7125 19.57 13.8925 20.11L12.8325 20.72C12.3125 21.02 12.1325 21.68 12.4325 22.2C12.6325 22.55 13.0025 22.74 13.3725 22.74C13.5525 22.74 13.7425 22.69 13.9125 22.59L14.9725 21.98C15.7425 22.84 16.7525 23.47 17.9325 23.71V24.9C17.9325 25.5 18.4225 25.98 19.0225 25.98C19.6225 25.98 20.1125 25.49 20.1125 24.9V23.71C21.2825 23.47 22.3025 22.84 23.0725 21.98L24.1325 22.59C24.3025 22.69 24.4925 22.74 24.6725 22.74C25.0525 22.74 25.4125 22.55 25.6125 22.2C25.9125 21.68 25.7325 21.02 25.2125 20.72ZM19.0325 21.66C17.2325 21.66 15.7725 20.2 15.7725 18.41C15.7725 16.62 17.2325 15.16 19.0325 15.16C20.8325 15.16 22.2925 16.62 22.2925 18.41C22.2925 20.2 20.8325 21.66 19.0325 21.66Z" fill="#737791"/>
</g>
</g>
<defs>
<clipPath id="clip0_205_1975">
<rect width="26" height="26" fill="white"/>
</clipPath>
</defs>
</svg>
