<svg width="26" height="26" viewBox="0 0 26 26" fill="none" xmlns="http://www.w3.org/2000/svg">
<g clip-path="url(#clip0_205_1981)">
<path d="M25.8981 1.43C25.8281 1.26 25.7581 1.08 25.6681 0.92C25.3281 0.37 24.7081 0 24.0081 0H16.0381C15.8081 0 15.5781 0.04 15.3681 0.12H15.3581C15.2581 0.16 15.1581 0.21 15.0681 0.26H15.0581C14.5581 0.55 14.1981 1.05 14.0981 1.64C14.0881 1.72 14.0781 1.8 14.0781 1.88V13.2C14.0781 14.18 14.7881 14.99 15.7181 15.14H15.7281C15.8281 15.16 15.9381 15.17 16.0481 15.17H23.9381C24.0781 15.17 24.1981 15.16 24.3181 15.14C25.2581 14.99 25.9681 14.18 25.9681 13.2V1.97C25.9681 1.78 25.9481 1.6 25.8981 1.43ZM24.0981 12.78C24.0981 13.11 24.0281 13.18 23.6881 13.18H16.3681C16.0181 13.18 15.9481 13.11 15.9481 12.76V2.4C15.9481 2.06 16.0181 1.99 16.3481 1.99H23.6881C24.0281 1.99 24.0981 2.05 24.0981 2.39V12.78Z" fill="#737791"/>
<path d="M11.8234 12.2638C11.7734 12.0838 11.6934 11.9137 11.5934 11.7537C11.2934 11.2737 10.7834 10.9338 10.2034 10.8538C10.1334 10.8538 10.0734 10.8438 10.0034 10.8438C9.30344 10.8438 8.60344 10.8438 7.90344 10.8438C6.77344 10.8438 5.64344 10.8438 4.51344 10.8438C3.63344 10.8438 2.76344 10.8438 1.88344 10.8438C1.83344 10.8438 1.78344 10.8438 1.73344 10.8438H1.71344C1.57344 10.8637 1.43344 10.9037 1.30344 10.9437C1.20344 10.9837 1.10344 11.0337 1.00344 11.0837C0.503438 11.3737 0.143438 11.8738 0.0434375 12.4738C0.0334375 12.5538 0.0234375 12.6337 0.0234375 12.7137C0.0234375 12.7137 0.0234375 12.7737 0.0234375 12.7937V24.0338C0.0234375 25.0138 0.733437 25.8137 1.66344 25.9737H1.67344C1.77344 25.9937 1.88344 26.0037 1.98344 26.0037H9.94344C10.0534 26.0037 10.1534 26.0037 10.2534 25.9837C10.3934 25.9637 10.5334 25.9238 10.6634 25.8738C10.7334 25.8438 10.8034 25.8138 10.8634 25.7838C11.3834 25.5038 11.7634 25.0037 11.8734 24.4037C11.8834 24.3037 11.8934 24.2037 11.9034 24.0938V12.8038C11.9034 12.6137 11.8734 12.4338 11.8334 12.2638H11.8234ZM9.71344 23.1938C9.71344 23.5338 9.65344 23.5938 9.32344 23.5938H2.58344C2.24344 23.5938 2.19344 23.5438 2.19344 23.1938V13.6637C2.19344 13.3037 2.24344 13.2537 2.59344 13.2537H9.31344C9.66344 13.2537 9.72344 13.3137 9.72344 13.6637V23.2038L9.71344 23.1938Z" fill="#737791"/>
<path d="M11.05 0.352187C10.86 0.242187 10.64 0.162188 10.43 0.0621875C10.41 0.0621875 10.39 0.0521875 10.37 0.0421875C10.23 0.0121875 10.08 -0.0078125 9.93 -0.0078125H1.97C1.86 -0.0078125 1.75 -0.0078125 1.65 0.0221875H1.63C0.7 0.192188 0 1.00219 0 1.97219V6.71219C0 7.69219 0.72 8.51219 1.66 8.65219C1.74 8.66219 1.83 8.67219 1.92 8.67219C3.31 8.67219 4.7 8.67219 6.09 8.67219C7.38 8.67219 8.67 8.67219 9.97 8.67219C10.07 8.67219 10.18 8.67219 10.28 8.65219C10.86 8.54219 11.35 8.18219 11.64 7.68219C11.71 7.55219 11.77 7.42219 11.81 7.27219C11.86 7.09219 11.89 6.90219 11.89 6.71219V1.97219C11.89 1.30219 11.56 0.712188 11.05 0.352187ZM9.7 6.31219C9.7 6.62219 9.63 6.69219 9.33 6.69219C8.2 6.69219 7.07 6.69219 5.95 6.69219C4.83 6.69219 3.71 6.69219 2.59 6.69219C2.26 6.69219 2.2 6.63219 2.2 6.31219C2.2 4.99219 2.2 3.67219 2.2 2.35219C2.2 2.05219 2.26 1.99219 2.56 1.99219C4.82 1.99219 7.09 1.99219 9.35 1.99219C9.64 1.99219 9.71 2.06219 9.71 2.35219C9.71 3.67219 9.71 4.99219 9.71 6.31219H9.7Z" fill="#737791"/>
<path d="M24.4538 17.3781C24.2938 17.3481 24.1338 17.3281 23.9538 17.3281C23.2638 17.3281 22.5638 17.3281 21.8738 17.3281C19.9238 17.3281 17.9838 17.3281 16.0338 17.3281C15.9338 17.3281 15.8237 17.3281 15.7337 17.3481H15.7137C14.7937 17.5181 14.0938 18.3181 14.0938 19.2881V24.0281C14.0938 25.0981 14.9437 25.9581 15.9937 25.9981H24.0837C24.7937 25.9781 25.4037 25.5781 25.7337 24.9981C25.7937 24.8681 25.8537 24.7281 25.9037 24.5881C25.9537 24.4081 25.9837 24.2181 25.9837 24.0281V19.2881C25.9837 18.3581 25.3337 17.5681 24.4637 17.3681L24.4538 17.3781ZM24.1138 23.8181C24.1138 24.1581 24.0538 24.2181 23.7038 24.2181C22.4738 24.2181 21.2538 24.2181 20.0238 24.2181H16.3638C16.0038 24.2181 15.9437 24.1581 15.9437 23.8081C15.9437 22.3781 15.9437 20.9581 15.9437 19.5281C15.9437 19.1781 16.0138 19.1081 16.3638 19.1081C18.8138 19.1081 21.2538 19.1081 23.7038 19.1081C24.0438 19.1081 24.1138 19.1781 24.1138 19.5081C24.1138 20.9381 24.1138 22.3781 24.1138 23.8081V23.8181Z" fill="#737791"/>
</g>
<defs>
<clipPath id="clip0_205_1981">
<rect width="26" height="26" fill="white"/>
</clipPath>
</defs>
</svg>
