<svg width="26" height="26" viewBox="0 0 26 26" fill="none" xmlns="http://www.w3.org/2000/svg">
<g clip-path="url(#clip0_32_120)">
<path d="M24.0258 0H16.0492C14.9606 0 14.0781 0.880968 14.0781 1.9677V13.2031C14.0781 14.2898 14.9606 15.1708 16.0492 15.1708H24.0258C25.1144 15.1708 25.9969 14.2898 25.9969 13.2031V1.9677C25.9969 0.880968 25.1144 0 24.0258 0Z" fill="white"/>
<path d="M9.9555 10.8281H1.97894C0.890314 10.8281 0.0078125 11.7091 0.0078125 12.7958V24.0312C0.0078125 25.118 0.890314 25.9989 1.97894 25.9989H9.9555C11.0441 25.9989 11.9266 25.118 11.9266 24.0312V12.7958C11.9266 11.7091 11.0441 10.8281 9.9555 10.8281Z" fill="white"/>
<path d="M9.94768 0H1.97112C0.882502 0 0 0.880968 0 1.9677V6.70693C0 7.79365 0.882502 8.67462 1.97112 8.67462H9.94768C11.0363 8.67462 11.9188 7.79365 11.9188 6.70693V1.9677C11.9188 0.880968 11.0363 0 9.94768 0Z" fill="white"/>
<path d="M24.0258 17.3281H16.0492C14.9606 17.3281 14.0781 18.2091 14.0781 19.2958V24.035C14.0781 25.1218 14.9606 26.0027 16.0492 26.0027H24.0258C25.1144 26.0027 25.9969 25.1218 25.9969 24.035V19.2958C25.9969 18.2091 25.1144 17.3281 24.0258 17.3281Z" fill="white"/>
</g>
<defs>
<clipPath id="clip0_32_120">
<rect width="26" height="26" fill="white"/>
</clipPath>
</defs>
</svg>
