<svg width="286" height="303" viewBox="0 0 286 303" fill="none" xmlns="http://www.w3.org/2000/svg">
<path d="M163.516 295.031C163.268 295.031 163.019 294.965 162.795 294.835L41.9343 223.738C41.5915 223.538 41.3503 223.203 41.2666 222.814C41.1828 222.426 41.264 222.022 41.4926 221.697L138.837 83.3639C139.288 82.7215 140.175 82.5666 140.817 83.0186C141.459 83.4705 141.614 84.3566 141.162 84.999L44.7089 222.071L162.222 291.199L166.039 220.576C166.082 219.791 166.742 219.197 167.534 219.233C168.319 219.276 168.918 219.946 168.877 220.728L164.934 293.684C164.906 294.18 164.624 294.626 164.185 294.86C163.977 294.974 163.746 295.03 163.515 295.03L163.516 295.031ZM168.612 200.781C168.587 200.781 168.562 200.781 168.534 200.778C167.749 200.735 167.15 200.065 167.19 199.283L176.047 35.4373L153.436 67.5668C152.984 68.2092 152.098 68.3641 151.456 67.9121C150.814 67.4601 150.659 66.574 151.111 65.9316L176.572 29.7526C176.938 29.2346 177.601 29.0188 178.2 29.227C178.799 29.4352 179.188 30.0141 179.155 30.6464L170.029 199.438C169.989 200.195 169.362 200.781 168.613 200.781L168.612 200.781Z" fill="#475D5D"/>
<path d="M277.267 223.939H197.557C196.773 223.939 196.136 223.301 196.136 222.517C196.136 221.732 196.773 221.095 197.557 221.095H275.024L219.663 103.452L61.2576 163.536C60.5213 163.816 59.7012 163.445 59.4245 162.711C59.1452 161.977 59.5159 161.155 60.2496 160.878L219.89 100.326C220.583 100.065 221.362 100.377 221.68 101.05L278.555 221.911C278.763 222.35 278.73 222.868 278.468 223.28C278.209 223.691 277.757 223.94 277.27 223.94L277.267 223.939ZM176.231 223.939H42.656C42.1811 223.939 41.7368 223.7 41.4728 223.307L13.0353 180.65C12.7941 180.29 12.7331 179.84 12.8651 179.426C12.9972 179.015 13.3095 178.685 13.7157 178.53L40.3098 168.442C41.0461 168.163 41.8663 168.534 42.143 169.267C42.4223 170.001 42.0516 170.824 41.3178 171.101L16.3917 180.554L43.4174 221.095H176.232C177.016 221.095 177.654 221.732 177.654 222.517C177.651 223.301 177.014 223.938 176.229 223.938L176.231 223.939Z" fill="#475D5D"/>
<path d="M14.2123 181.286C13.8772 181.286 13.5446 181.166 13.2805 180.938C12.8844 180.598 12.7092 180.064 12.8234 179.554L41.2609 51.582C41.3447 51.2012 41.5834 50.8711 41.9185 50.6705C42.2537 50.47 42.6574 50.4166 43.0306 50.5207L107.498 68.5712C108.254 68.782 108.696 69.5665 108.483 70.3232C108.272 71.0799 107.485 71.5217 106.731 71.3083L43.7088 53.6621L16.1676 177.591L90.5536 149.377C91.2874 149.098 92.1101 149.469 92.3868 150.202C92.6661 150.936 92.2954 151.759 91.5616 152.036L14.7186 181.189C14.5536 181.25 14.3835 181.281 14.2134 181.281L14.2123 181.286ZM111.004 144.574C110.43 144.574 109.889 144.223 109.673 143.657C109.394 142.923 109.765 142.101 110.498 141.824L215.837 101.866L127.275 77.0676C126.518 76.8569 126.077 76.0723 126.29 75.3157C126.501 74.559 127.285 74.1172 128.042 74.3305L220.771 100.295C221.362 100.46 221.781 100.985 221.809 101.6C221.837 102.214 221.467 102.775 220.893 102.994L111.511 144.485C111.341 144.543 111.168 144.573 111.003 144.573L111.004 144.574Z" fill="#475D5D"/>
<path d="M270.156 302.14C261.53 302.14 254.516 295.125 254.516 286.5C254.516 277.875 261.531 270.859 270.156 270.859C278.781 270.859 285.796 277.875 285.796 286.5C285.796 295.125 278.781 302.14 270.156 302.14ZM270.156 273.702C263.1 273.702 257.359 279.443 257.359 286.5C257.359 293.556 263.1 299.297 270.156 299.297C277.212 299.297 282.953 293.556 282.953 286.5C282.953 279.443 277.212 273.702 270.156 273.702Z" fill="#475D5D"/>
<path d="M99.5309 31.9837C90.9054 31.9837 83.8906 24.9683 83.8906 16.3434C83.8906 7.71858 90.9061 0.703125 99.5309 0.703125C108.156 0.703125 115.171 7.71858 115.171 16.3434C115.171 24.9683 108.156 31.9837 99.5309 31.9837ZM99.5309 3.54623C92.4752 3.54623 86.7337 9.28703 86.7337 16.3434C86.7337 23.3998 92.4745 29.1406 99.5309 29.1406C106.587 29.1406 112.328 23.3998 112.328 16.3434C112.328 9.28703 106.587 3.54623 99.5309 3.54623Z" fill="#475D5D"/>
<path d="M234.602 202.608C234.226 202.608 233.863 202.45 233.591 202.189C233.327 201.925 233.18 201.557 233.18 201.186C233.18 200.808 233.329 200.44 233.591 200.175C234.124 199.65 235.076 199.65 235.602 200.175C235.871 200.445 236.021 200.808 236.021 201.186C236.021 201.557 235.871 201.925 235.602 202.189C235.34 202.45 234.977 202.608 234.602 202.608Z" fill="#475D5D"/>
<path d="M213.281 202.608C212.905 202.608 212.542 202.45 212.278 202.189C212.009 201.925 211.859 201.557 211.859 201.186C211.859 200.808 212.009 200.44 212.278 200.175C212.796 199.65 213.756 199.65 214.284 200.175C214.553 200.445 214.703 200.808 214.703 201.186C214.703 201.557 214.553 201.925 214.292 202.189C214.02 202.45 213.657 202.608 213.281 202.608H213.281Z" fill="#475D5D"/>
<path d="M191.953 202.608C191.577 202.608 191.214 202.45 190.943 202.189C190.679 201.925 190.531 201.557 190.531 201.186C190.531 200.808 190.681 200.447 190.943 200.175C191.476 199.65 192.428 199.65 192.954 200.175C193.223 200.445 193.372 200.808 193.372 201.186C193.372 201.557 193.223 201.925 192.961 202.189C192.692 202.45 192.329 202.608 191.953 202.608H191.953Z" fill="#475D5D"/>
<path d="M191.953 181.28C191.582 181.28 191.214 181.122 190.943 180.861C190.679 180.597 190.531 180.229 190.531 179.858C190.531 179.48 190.681 179.119 190.943 178.847C191.476 178.322 192.428 178.322 192.954 178.847C193.223 179.116 193.372 179.48 193.372 179.858C193.372 180.229 193.223 180.597 192.954 180.861C192.692 181.122 192.324 181.28 191.953 181.28Z" fill="#475D5D"/>
<path d="M191.953 159.959C191.577 159.959 191.214 159.802 190.95 159.541C190.681 159.276 190.531 158.908 190.531 158.538C190.531 158.159 190.681 157.799 190.943 157.527C191.476 157.001 192.428 157.001 192.954 157.527C193.223 157.796 193.372 158.159 193.372 158.538C193.372 158.908 193.223 159.276 192.961 159.541C192.692 159.802 192.329 159.959 191.953 159.959Z" fill="#475D5D"/>
<path d="M0 279.391H14.2188V293.609H0V279.391Z" fill="#475D5D"/>
<path d="M21.3281 279.391H35.5469V293.609H21.3281V279.391Z" fill="#475D5D"/>
<path d="M42.6562 279.391H56.875V293.609H42.6562V279.391Z" fill="#475D5D"/>
<path d="M63.9766 279.391H78.1953V293.609H63.9766V279.391Z" fill="#475D5D"/>
</svg>
