<svg width="390" height="391" viewBox="0 0 390 391" fill="none" xmlns="http://www.w3.org/2000/svg">
<path d="M215.516 339.031C215.268 339.031 215.019 338.965 214.795 338.835L93.9343 267.738C93.5915 267.538 93.3503 267.203 93.2666 266.814C93.1828 266.426 93.264 266.022 93.4926 265.697L190.837 127.364C191.288 126.721 192.175 126.567 192.817 127.019C193.459 127.471 193.614 128.357 193.162 128.999L96.7089 266.071L214.222 335.199L218.039 264.576C218.082 263.791 218.742 263.197 219.534 263.233C220.319 263.276 220.918 263.946 220.877 264.728L216.934 337.684C216.906 338.18 216.624 338.626 216.185 338.86C215.977 338.974 215.746 339.03 215.515 339.03L215.516 339.031ZM220.612 244.781C220.587 244.781 220.562 244.781 220.534 244.778C219.749 244.735 219.15 244.065 219.19 243.283L228.047 79.4373L205.436 111.567C204.984 112.209 204.098 112.364 203.456 111.912C202.814 111.46 202.659 110.574 203.111 109.932L228.572 73.7526C228.938 73.2346 229.601 73.0188 230.2 73.227C230.799 73.4352 231.188 74.0141 231.155 74.6464L222.029 243.438C221.989 244.195 221.362 244.781 220.613 244.781L220.612 244.781Z" fill="#475D5D"/>
<path d="M329.267 267.939H249.557C248.773 267.939 248.136 267.301 248.136 266.517C248.136 265.732 248.773 265.095 249.557 265.095H327.024L271.663 147.452L113.258 207.536C112.521 207.816 111.701 207.445 111.424 206.711C111.145 205.977 111.516 205.155 112.25 204.878L271.89 144.326C272.583 144.065 273.362 144.377 273.68 145.05L330.555 265.911C330.763 266.35 330.73 266.868 330.468 267.28C330.209 267.691 329.757 267.94 329.27 267.94L329.267 267.939ZM228.231 267.939H94.656C94.1811 267.939 93.7368 267.7 93.4728 267.307L65.0353 224.65C64.7941 224.29 64.7331 223.84 64.8651 223.426C64.9972 223.015 65.3095 222.685 65.7157 222.53L92.3098 212.442C93.0461 212.163 93.8663 212.534 94.143 213.267C94.4223 214.001 94.0516 214.824 93.3178 215.101L68.3917 224.554L95.4174 265.095H228.232C229.016 265.095 229.654 265.732 229.654 266.517C229.651 267.301 229.014 267.938 228.229 267.938L228.231 267.939Z" fill="#475D5D"/>
<path d="M66.2123 225.286C65.8772 225.286 65.5446 225.166 65.2805 224.938C64.8844 224.598 64.7092 224.064 64.8234 223.554L93.2609 95.582C93.3447 95.2012 93.5834 94.8711 93.9185 94.6705C94.2537 94.47 94.6574 94.4166 95.0306 94.5207L159.498 112.571C160.254 112.782 160.696 113.567 160.483 114.323C160.272 115.08 159.485 115.522 158.731 115.308L95.7088 97.6621L68.1676 221.591L142.554 193.377C143.287 193.098 144.11 193.469 144.387 194.202C144.666 194.936 144.295 195.759 143.562 196.036L66.7186 225.189C66.5536 225.25 66.3835 225.281 66.2134 225.281L66.2123 225.286ZM163.004 188.574C162.43 188.574 161.889 188.223 161.673 187.657C161.394 186.923 161.765 186.101 162.498 185.824L267.837 145.866L179.275 121.068C178.518 120.857 178.077 120.072 178.29 119.316C178.501 118.559 179.285 118.117 180.042 118.331L272.771 144.295C273.362 144.46 273.781 144.985 273.809 145.6C273.837 146.214 273.467 146.775 272.893 146.994L163.511 188.485C163.341 188.543 163.168 188.573 163.003 188.573L163.004 188.574Z" fill="#475D5D"/>
<path d="M322.156 346.14C313.53 346.14 306.516 339.125 306.516 330.5C306.516 321.875 313.531 314.859 322.156 314.859C330.781 314.859 337.796 321.875 337.796 330.5C337.796 339.125 330.781 346.14 322.156 346.14ZM322.156 317.702C315.1 317.702 309.359 323.443 309.359 330.5C309.359 337.556 315.1 343.297 322.156 343.297C329.212 343.297 334.953 337.556 334.953 330.5C334.953 323.443 329.212 317.702 322.156 317.702Z" fill="#475D5D"/>
<path d="M151.531 75.9837C142.905 75.9837 135.891 68.9683 135.891 60.3434C135.891 51.7186 142.906 44.7031 151.531 44.7031C160.156 44.7031 167.171 51.7186 167.171 60.3434C167.171 68.9683 160.156 75.9837 151.531 75.9837ZM151.531 47.5462C144.475 47.5462 138.734 53.287 138.734 60.3434C138.734 67.3998 144.475 73.1406 151.531 73.1406C158.587 73.1406 164.328 67.3998 164.328 60.3434C164.328 53.287 158.587 47.5462 151.531 47.5462Z" fill="#475D5D"/>
<path d="M286.602 246.608C286.226 246.608 285.863 246.45 285.591 246.189C285.327 245.925 285.18 245.557 285.18 245.186C285.18 244.808 285.329 244.44 285.591 244.175C286.124 243.65 287.076 243.65 287.602 244.175C287.871 244.445 288.021 244.808 288.021 245.186C288.021 245.557 287.871 245.925 287.602 246.189C287.34 246.45 286.977 246.608 286.602 246.608Z" fill="#475D5D"/>
<path d="M265.281 246.608C264.905 246.608 264.542 246.45 264.278 246.189C264.009 245.925 263.859 245.557 263.859 245.186C263.859 244.808 264.009 244.44 264.278 244.175C264.796 243.65 265.756 243.65 266.284 244.175C266.553 244.445 266.703 244.808 266.703 245.186C266.703 245.557 266.553 245.925 266.292 246.189C266.02 246.45 265.657 246.608 265.281 246.608H265.281Z" fill="#475D5D"/>
<path d="M243.953 246.608C243.577 246.608 243.214 246.45 242.943 246.189C242.679 245.925 242.531 245.557 242.531 245.186C242.531 244.808 242.681 244.447 242.943 244.175C243.476 243.65 244.428 243.65 244.954 244.175C245.223 244.445 245.372 244.808 245.372 245.186C245.372 245.557 245.223 245.925 244.961 246.189C244.692 246.45 244.329 246.608 243.953 246.608H243.953Z" fill="#475D5D"/>
<path d="M243.953 225.28C243.582 225.28 243.214 225.122 242.943 224.861C242.679 224.597 242.531 224.229 242.531 223.858C242.531 223.48 242.681 223.119 242.943 222.847C243.476 222.322 244.428 222.322 244.954 222.847C245.223 223.116 245.372 223.48 245.372 223.858C245.372 224.229 245.223 224.597 244.954 224.861C244.692 225.122 244.324 225.28 243.953 225.28Z" fill="#475D5D"/>
<path d="M243.953 203.959C243.577 203.959 243.214 203.802 242.95 203.541C242.681 203.276 242.531 202.908 242.531 202.538C242.531 202.159 242.681 201.799 242.943 201.527C243.476 201.001 244.428 201.001 244.954 201.527C245.223 201.796 245.372 202.159 245.372 202.538C245.372 202.908 245.223 203.276 244.961 203.541C244.692 203.802 244.329 203.959 243.953 203.959Z" fill="#475D5D"/>
<path d="M52 323.391H66.2188V337.609H52V323.391Z" fill="#475D5D"/>
<path d="M73.3281 323.391H87.5469V337.609H73.3281V323.391Z" fill="#475D5D"/>
<path d="M94.6562 323.391H108.875V337.609H94.6562V323.391Z" fill="#475D5D"/>
<path d="M115.977 323.391H130.195V337.609H115.977V323.391Z" fill="#475D5D"/>
</svg>
