<svg width="217" height="47" viewBox="0 0 217 47" fill="none" xmlns="http://www.w3.org/2000/svg">
<path d="M72.154 33L68.15 25.928H66.434V33H62.794V14.852H69.606C71.01 14.852 72.206 15.1033 73.194 15.606C74.182 16.0913 74.9187 16.7587 75.404 17.608C75.9067 18.44 76.158 19.376 76.158 20.416C76.158 21.612 75.8113 22.6953 75.118 23.666C74.4247 24.6193 73.3933 25.278 72.024 25.642L76.366 33H72.154ZM66.434 23.198H69.476C70.464 23.198 71.2007 22.964 71.686 22.496C72.1713 22.0107 72.414 21.3433 72.414 20.494C72.414 19.662 72.1713 19.0207 71.686 18.57C71.2007 18.102 70.464 17.868 69.476 17.868H66.434V23.198ZM92.8403 25.486C92.8403 26.006 92.8056 26.474 92.7363 26.89H82.2063C82.2929 27.93 82.6569 28.7447 83.2983 29.334C83.9396 29.9233 84.7283 30.218 85.6643 30.218C87.0163 30.218 87.9783 29.6373 88.5503 28.476H92.4763C92.0603 29.8627 91.2629 31.0067 90.0843 31.908C88.9056 32.792 87.4583 33.234 85.7423 33.234C84.3556 33.234 83.1076 32.9307 81.9983 32.324C80.9063 31.7 80.0483 30.8247 79.4243 29.698C78.8176 28.5713 78.5142 27.2713 78.5142 25.798C78.5142 24.3073 78.8176 22.9987 79.4243 21.872C80.0309 20.7453 80.8803 19.8787 81.9723 19.272C83.0643 18.6653 84.3209 18.362 85.7423 18.362C87.1116 18.362 88.3336 18.6567 89.4083 19.246C90.5003 19.8353 91.3409 20.676 91.9303 21.768C92.5369 22.8427 92.8403 24.082 92.8403 25.486ZM89.0703 24.446C89.0529 23.51 88.7149 22.7647 88.0563 22.21C87.3976 21.638 86.5916 21.352 85.6383 21.352C84.7369 21.352 83.9743 21.6293 83.3503 22.184C82.7436 22.7213 82.3709 23.4753 82.2323 24.446H89.0703ZM101.139 18.362C102.214 18.362 103.158 18.5787 103.973 19.012C104.788 19.428 105.429 19.974 105.897 20.65V18.596H109.563V33.104C109.563 34.4387 109.294 35.626 108.757 36.666C108.22 37.7233 107.414 38.5553 106.339 39.162C105.264 39.786 103.964 40.098 102.439 40.098C100.394 40.098 98.7125 39.6213 97.3951 38.668C96.0951 37.7147 95.3585 36.4147 95.1851 34.768H98.7991C98.9898 35.4267 99.3971 35.9467 100.021 36.328C100.662 36.7267 101.434 36.926 102.335 36.926C103.392 36.926 104.25 36.6053 104.909 35.964C105.568 35.34 105.897 34.3867 105.897 33.104V30.868C105.429 31.544 104.779 32.1073 103.947 32.558C103.132 33.0087 102.196 33.234 101.139 33.234C99.9258 33.234 98.8165 32.922 97.8111 32.298C96.8058 31.674 96.0085 30.7987 95.4191 29.672C94.8471 28.528 94.5611 27.2193 94.5611 25.746C94.5611 24.29 94.8471 22.9987 95.4191 21.872C96.0085 20.7453 96.7971 19.8787 97.7851 19.272C98.7905 18.6653 99.9085 18.362 101.139 18.362ZM105.897 25.798C105.897 24.914 105.724 24.16 105.377 23.536C105.03 22.8947 104.562 22.4093 103.973 22.08C103.384 21.7333 102.751 21.56 102.075 21.56C101.399 21.56 100.775 21.7247 100.203 22.054C99.6311 22.3833 99.1631 22.8687 98.7991 23.51C98.4525 24.134 98.2791 24.8793 98.2791 25.746C98.2791 26.6127 98.4525 27.3753 98.7991 28.034C99.1631 28.6753 99.6311 29.1693 100.203 29.516C100.792 29.8627 101.416 30.036 102.075 30.036C102.751 30.036 103.384 29.8713 103.973 29.542C104.562 29.1953 105.03 28.71 105.377 28.086C105.724 27.4447 105.897 26.682 105.897 25.798ZM114.964 16.88C114.323 16.88 113.786 16.6807 113.352 16.282C112.936 15.866 112.728 15.3547 112.728 14.748C112.728 14.1413 112.936 13.6387 113.352 13.24C113.786 12.824 114.323 12.616 114.964 12.616C115.606 12.616 116.134 12.824 116.55 13.24C116.984 13.6387 117.2 14.1413 117.2 14.748C117.2 15.3547 116.984 15.866 116.55 16.282C116.134 16.6807 115.606 16.88 114.964 16.88ZM116.758 18.596V33H113.118V18.596H116.758ZM126.751 33.234C125.364 33.234 124.116 32.9307 123.007 32.324C121.897 31.7 121.022 30.8247 120.381 29.698C119.757 28.5713 119.445 27.2713 119.445 25.798C119.445 24.3247 119.765 23.0247 120.407 21.898C121.065 20.7713 121.958 19.9047 123.085 19.298C124.211 18.674 125.468 18.362 126.855 18.362C128.241 18.362 129.498 18.674 130.625 19.298C131.751 19.9047 132.635 20.7713 133.277 21.898C133.935 23.0247 134.265 24.3247 134.265 25.798C134.265 27.2713 133.927 28.5713 133.251 29.698C132.592 30.8247 131.691 31.7 130.547 32.324C129.42 32.9307 128.155 33.234 126.751 33.234ZM126.751 30.062C127.409 30.062 128.025 29.906 128.597 29.594C129.186 29.2647 129.654 28.7793 130.001 28.138C130.347 27.4967 130.521 26.7167 130.521 25.798C130.521 24.4287 130.157 23.38 129.429 22.652C128.718 21.9067 127.843 21.534 126.803 21.534C125.763 21.534 124.887 21.9067 124.177 22.652C123.483 23.38 123.137 24.4287 123.137 25.798C123.137 27.1673 123.475 28.2247 124.151 28.97C124.844 29.698 125.711 30.062 126.751 30.062ZM147.179 33L140.575 24.914V33H136.935V14.852H140.575V22.99L147.179 14.852H151.573L144.085 23.848L151.781 33H147.179ZM157.815 14.852V33H154.175V14.852H157.815ZM178.735 29.542H171.507L170.311 33H166.489L173.015 14.826H177.253L183.779 33H179.931L178.735 29.542ZM177.747 26.63L175.121 19.038L172.494 26.63H177.747ZM199.452 20.468C199.452 21.4387 199.218 22.3487 198.75 23.198C198.299 24.0473 197.58 24.732 196.592 25.252C195.621 25.772 194.39 26.032 192.9 26.032H189.858V33H186.218V14.852H192.9C194.304 14.852 195.5 15.0947 196.488 15.58C197.476 16.0653 198.212 16.7327 198.698 17.582C199.2 18.4313 199.452 19.3933 199.452 20.468ZM192.744 23.094C193.749 23.094 194.494 22.8687 194.98 22.418C195.465 21.95 195.708 21.3 195.708 20.468C195.708 18.7 194.72 17.816 192.744 17.816H189.858V23.094H192.744ZM215.27 20.468C215.27 21.4387 215.036 22.3487 214.568 23.198C214.118 24.0473 213.398 24.732 212.41 25.252C211.44 25.772 210.209 26.032 208.718 26.032H205.676V33H202.036V14.852H208.718C210.122 14.852 211.318 15.0947 212.306 15.58C213.294 16.0653 214.031 16.7327 214.516 17.582C215.019 18.4313 215.27 19.3933 215.27 20.468ZM208.562 23.094C209.568 23.094 210.313 22.8687 210.798 22.418C211.284 21.95 211.526 21.3 211.526 20.468C211.526 18.7 210.538 17.816 208.562 17.816H205.676V23.094H208.562Z" fill="#008080"/>
<rect width="47" height="47" rx="6" fill="#008080"/>
<path d="M22.6885 25.4343H17.4615V35H14V11H26.4269L30.4423 13.2971V23.1371L26.4269 25.4343L32 35H28.1577L22.6885 25.4343ZM17.4615 14.0857V22.3486H26.9808V14.0857H17.4615Z" fill="white"/>
</svg>
