<svg width="56" height="56" viewBox="0 0 56 56" fill="none" xmlns="http://www.w3.org/2000/svg">
<rect width="56" height="56" rx="8" fill="#008080"/>
<path d="M22.3733 17.6345C21.2412 18.7876 21.2412 20.6534 22.3943 21.8065L24.91 24.3223C27.2791 26.6913 27.2791 30.5488 24.91 32.9179L20.2978 28.3056C19.1133 27.1211 18.5158 25.5592 18.5158 24.0078C18.5158 22.4564 19.1133 20.8945 20.2978 19.71L22.3419 17.666C22.3523 17.6555 22.3628 17.645 22.3733 17.6345Z" fill="#008080" stroke="white" stroke-width="2" stroke-miterlimit="10"/>
<path d="M24.385 23.7913L22.3934 21.7996C21.2403 20.6465 21.2298 18.7912 22.3724 17.6276C23.5045 16.5165 25.3075 16.5374 26.4291 17.6591C26.9951 18.2251 27.2782 18.9694 27.2782 19.7031C27.2782 20.4369 26.9951 21.1811 26.4291 21.7472L25.9574 22.2189" fill="#008080"/>
<path d="M24.385 23.7913L22.3934 21.7996C21.2403 20.6465 21.2298 18.7912 22.3724 17.6276C23.5045 16.5165 25.3075 16.5374 26.4291 17.6591C26.9951 18.2251 27.2782 18.9694 27.2782 19.7031C27.2782 20.4369 26.9951 21.1811 26.4291 21.7472L25.9574 22.2189" stroke="white" stroke-width="2" stroke-miterlimit="10"/>
<path d="M34.2694 38.2304C35.4015 37.0773 35.4015 35.2114 34.2485 34.0584L31.7327 31.5426C29.3637 29.1736 29.3637 25.316 31.7327 22.947L36.3449 27.5593C37.5294 28.7438 38.1269 30.3057 38.1269 31.8571C38.1269 33.4085 37.5294 34.9703 36.3449 36.1548L34.3009 38.1989C34.2799 38.2199 34.2694 38.2304 34.2694 38.2304Z" fill="#008080" stroke="white" stroke-width="2" stroke-miterlimit="10"/>
<path d="M32.2444 32.0759L34.236 34.0676C35.3891 35.2206 35.3996 37.076 34.257 38.2396C33.1249 39.3507 31.3219 39.3297 30.2003 38.2081C29.6343 37.6421 29.3512 36.8978 29.3512 36.1641C29.3512 35.4303 29.6343 34.686 30.2003 34.12L30.6825 33.6378" fill="#008080"/>
<path d="M32.2444 32.0759L34.236 34.0676C35.3891 35.2206 35.3996 37.076 34.257 38.2396C33.1249 39.3507 31.3219 39.3297 30.2003 38.2081C29.6343 37.6421 29.3512 36.8978 29.3512 36.1641C29.3512 35.4303 29.6343 34.686 30.2003 34.12L30.6825 33.6378" stroke="white" stroke-width="2" stroke-miterlimit="10"/>
</svg>
