<svg width="26" height="26" viewBox="0 0 26 26" fill="none" xmlns="http://www.w3.org/2000/svg">
<g clip-path="url(#clip0_205_1968)">
<path d="M23.4014 10.8034C22.6314 10.7734 22.5414 10.8334 22.1914 11.5434C22.0614 11.7934 21.9014 12.0334 21.7414 12.2734C21.5214 12.5934 21.2114 12.7534 20.8114 12.7434C20.3314 12.7434 19.8514 12.7434 19.3714 12.7834C18.8714 12.8234 18.4814 12.6534 18.2014 12.2334C18.0314 11.9734 17.8614 11.7134 17.7114 11.4334C17.5114 11.0534 17.2314 10.8834 16.8114 10.9234C16.6514 10.9434 16.5014 10.9634 16.3414 10.9734C15.6014 11.0134 14.9914 10.8334 14.6514 10.0734C14.4914 9.72337 14.2614 9.39337 14.0514 9.07337C13.8014 8.70337 13.7614 8.32337 13.9414 7.93337C14.0814 7.63337 14.2414 7.32338 14.4214 7.04338C14.6714 6.65338 14.6614 6.36338 14.3914 5.98338C14.2314 5.76338 14.0914 5.53337 13.9514 5.29338C13.6814 4.81337 13.6714 4.34337 13.9914 3.86337C14.2314 3.49337 14.4314 3.10338 14.6314 2.70338C14.8314 2.29338 15.1514 2.06337 15.6014 2.02338C15.9114 1.99338 16.2214 1.97338 16.5314 1.99338C17.0214 2.02338 17.2914 1.87338 17.4914 1.41338C17.5814 1.21337 17.6914 1.02338 17.7914 0.823375C18.0814 0.283375 18.5014 -0.006625 19.1514 0.033375C19.5814 0.063375 20.0114 0.033375 20.4414 0.003375C20.9014 -0.026625 21.2614 0.143375 21.5114 0.513375C21.7014 0.783375 21.8714 1.05338 22.0214 1.34338C22.2314 1.75338 22.5214 1.91338 22.9914 1.85338C23.2314 1.82338 23.4814 1.81338 23.7314 1.82338C24.3114 1.82338 24.7514 2.05338 25.0114 2.60337C25.2014 2.99337 25.4514 3.36338 25.7014 3.73338C25.9414 4.09338 25.9814 4.45338 25.8014 4.84338C25.6614 5.14338 25.5114 5.45337 25.3314 5.73338C25.0714 6.14337 25.0714 6.43338 25.3614 6.82338C25.5014 7.01338 25.6214 7.21338 25.7414 7.41337C26.0514 7.94337 26.0914 8.45337 25.7214 8.98337C25.5214 9.27337 25.3514 9.58337 25.2214 9.90337C24.9614 10.5234 24.5014 10.7934 23.8514 10.8034H23.4014ZM23.7414 8.01338C23.6614 7.93338 23.6114 7.83337 23.5314 7.77338C23.1814 7.56337 23.0714 7.24338 23.0614 6.86338C23.0614 6.49338 23.0614 6.12337 23.0414 5.75338C23.0214 5.37337 23.1414 5.07337 23.4614 4.85337C23.6414 4.73338 23.6814 4.58337 23.5514 4.40338C23.4814 4.31337 23.4314 4.22337 23.3814 4.12337C23.2714 3.86337 23.1014 3.82338 22.8614 3.95338C22.5914 4.10337 22.3114 4.11338 22.0314 3.95338C21.6014 3.73338 21.1814 3.51338 20.7714 3.25338C20.5914 3.14338 20.4314 2.92338 20.3714 2.73338C20.2014 2.21338 20.2214 2.21338 19.6914 2.23338C19.4114 2.23338 19.2614 2.31337 19.2614 2.61337C19.2614 2.95337 19.0714 3.19337 18.7814 3.36337C18.4514 3.55338 18.1214 3.75338 17.7914 3.95338C17.4514 4.17338 17.1214 4.24338 16.7514 4.05338C16.5714 3.96338 16.4214 3.99337 16.3314 4.18337C16.2914 4.28337 16.2414 4.38338 16.1714 4.46338C16.0014 4.70337 16.0214 4.86338 16.2814 5.02338C16.5614 5.19338 16.6814 5.45337 16.7014 5.77338C16.7014 6.19338 16.7214 6.61338 16.7314 7.03338C16.7414 7.39338 16.6414 7.69338 16.3314 7.89337C16.1414 8.01338 16.0814 8.17338 16.2414 8.37337C16.3114 8.46338 16.3614 8.55337 16.4114 8.65337C16.5214 8.89337 16.6714 8.94338 16.9014 8.81338C17.2314 8.62338 17.5414 8.66337 17.8514 8.84338L18.8914 9.41337C19.2014 9.58337 19.4214 9.83337 19.4314 10.2034C19.4414 10.4234 19.5514 10.5534 19.8014 10.5334C19.9114 10.5234 20.0114 10.5234 20.1314 10.5334C20.3914 10.5434 20.5114 10.4434 20.5114 10.1834C20.5114 9.85338 20.6714 9.61337 20.9414 9.44337C21.3314 9.19337 21.7314 8.92338 22.1414 8.72338C22.3514 8.62337 22.6414 8.63337 22.8914 8.65337C23.0814 8.67338 23.2714 8.85337 23.4114 8.57337C23.5114 8.38338 23.6114 8.19337 23.7214 7.99337H23.7414V8.01338Z" fill="#737791"/>
<path d="M6.03344 26.2506H3.49344C1.49344 26.2306 0.0234375 24.7606 0.0234375 22.7606V17.6906C0.0234375 15.6306 1.51344 14.1406 3.57344 14.1406H8.57344C10.6734 14.1406 12.1334 15.6006 12.1434 17.7006V22.7706C12.1434 24.7506 10.6734 26.2306 8.70344 26.2506C7.82344 26.2506 6.93344 26.2506 6.05344 26.2506H6.03344ZM9.95344 20.2006V17.8606C9.95344 16.9206 9.35344 16.3306 8.42344 16.3206H3.70344C2.81344 16.3206 2.20344 16.9206 2.20344 17.8206V22.5806C2.20344 23.4806 2.79344 24.0806 3.69344 24.0806C5.28344 24.0906 6.86344 24.0806 8.45344 24.0806C9.37344 24.0806 9.94344 23.4906 9.95344 22.5606V20.2206H9.96344L9.95344 20.2006Z" fill="#737791"/>
<path d="M19.8881 26.2563H17.3481C15.3081 26.2563 13.8281 24.7662 13.8281 22.7362V17.6663C13.8281 15.6263 15.3081 14.1562 17.3581 14.1562H22.4681C24.4181 14.1562 25.9281 15.6763 25.9381 17.6263V22.7763C25.9281 24.7863 24.4681 26.2363 22.4581 26.2663H19.8881V26.2563ZM19.8581 24.0463H22.1781C23.1481 24.0463 23.7381 23.4562 23.7381 22.4762V17.8962C23.7381 16.9262 23.1481 16.3463 22.1681 16.3363H17.6181C16.5981 16.3363 16.0281 16.9163 16.0281 17.9363V22.4862C16.0281 23.4563 16.6181 24.0363 17.5981 24.0463H19.8581Z" fill="#737791"/>
<path d="M12.1303 6.405V9.025C12.1103 10.865 10.7803 12.355 8.95031 12.425C7.01031 12.495 5.07031 12.495 3.14031 12.425C1.42031 12.345 0.0603125 10.885 0.0303125 9.175C0.0003125 7.315 0.0003125 5.455 0.0303125 3.595C0.0603125 1.815 1.57031 0.365 3.38031 0.335C5.18031 0.305 6.97031 0.305 8.77031 0.335C10.6403 0.365 12.1203 1.875 12.1303 3.745V6.395V6.405ZM9.96031 6.395V4.095C9.96031 3.125 9.38031 2.545 8.41031 2.545H3.72031C2.81031 2.545 2.20031 3.145 2.20031 4.065V8.785C2.20031 9.695 2.80031 10.305 3.72031 10.315H8.41031C9.37031 10.315 9.96031 9.715 9.96031 8.755V6.405V6.395Z" fill="#737791"/>
</g>
<defs>
<clipPath id="clip0_205_1968">
<rect width="26" height="26" fill="white"/>
</clipPath>
</defs>
</svg>
