<svg width="48" height="48" viewBox="0 0 48 48" fill="none" xmlns="http://www.w3.org/2000/svg">
<rect width="48" height="48" rx="11" fill="#008080" fill-opacity="0.1"/>
<path d="M33.6712 30.5497C33.0284 29.9766 32.4656 29.3196 31.9979 28.5964C31.4874 27.5981 31.1814 26.5078 31.0979 25.3897V22.0964C31.1023 20.3401 30.4653 18.6427 29.3064 17.323C28.1476 16.0033 26.5467 15.1523 24.8046 14.9297V14.0697C24.8046 13.8336 24.7108 13.6073 24.5439 13.4404C24.377 13.2735 24.1506 13.1797 23.9146 13.1797C23.6785 13.1797 23.4522 13.2735 23.2853 13.4404C23.1184 13.6073 23.0246 13.8336 23.0246 14.0697V14.943C21.2981 15.1816 19.7166 16.0379 18.5729 17.3531C17.4293 18.6683 16.8011 20.3535 16.8046 22.0964V25.3897C16.7211 26.5078 16.4151 27.5981 15.9046 28.5964C15.4452 29.3179 14.8914 29.9748 14.2579 30.5497C14.1868 30.6122 14.1298 30.6891 14.0907 30.7753C14.0516 30.8615 14.0314 30.955 14.0312 31.0497V31.9564C14.0312 32.1332 14.1015 32.3027 14.2265 32.4278C14.3515 32.5528 14.5211 32.623 14.6979 32.623H33.2313C33.4081 32.623 33.5776 32.5528 33.7027 32.4278C33.8277 32.3027 33.8979 32.1332 33.8979 31.9564V31.0497C33.8978 30.955 33.8775 30.8615 33.8384 30.7753C33.7994 30.6891 33.7424 30.6122 33.6712 30.5497ZM15.4179 31.2897C16.0382 30.6905 16.5843 30.019 17.0446 29.2897C17.6877 28.084 18.0629 26.7537 18.1446 25.3897V22.0964C18.1181 21.315 18.2492 20.5364 18.5299 19.8068C18.8107 19.0772 19.2354 18.4115 19.7787 17.8495C20.3221 17.2874 20.973 16.8405 21.6927 16.5352C22.4124 16.2299 23.1862 16.0726 23.9679 16.0726C24.7497 16.0726 25.5234 16.2299 26.2431 16.5352C26.9628 16.8405 27.6137 17.2874 28.1571 17.8495C28.7004 18.4115 29.1251 19.0772 29.4059 19.8068C29.6866 20.5364 29.8177 21.315 29.7913 22.0964V25.3897C29.873 26.7537 30.2482 28.084 30.8913 29.2897C31.3515 30.019 31.8976 30.6905 32.5179 31.2897H15.4179Z" fill="#008080"/>
<path d="M23.9976 34.8559C24.4176 34.8463 24.8206 34.6884 25.1353 34.4102C25.4501 34.132 25.6564 33.7515 25.7176 33.3359H22.2109C22.2739 33.7628 22.4898 34.1523 22.8185 34.4319C23.1471 34.7115 23.5662 34.8622 23.9976 34.8559Z" fill="#008080"/>
<path d="M38.3333 12.6667C40.1743 12.6667 41.6667 11.1743 41.6667 9.33333C41.6667 7.49238 40.1743 6 38.3333 6C36.4924 6 35 7.49238 35 9.33333C35 11.1743 36.4924 12.6667 38.3333 12.6667Z" fill="#008080"/>
</svg>
