<svg width="154" height="29" viewBox="0 0 154 29" fill="none" xmlns="http://www.w3.org/2000/svg">
<path d="M10.154 21L6.15 13.928H4.434V21H0.794V2.852H7.606C9.01 2.852 10.206 3.10333 11.194 3.606C12.182 4.09133 12.9187 4.75867 13.404 5.608C13.9067 6.44 14.158 7.376 14.158 8.416C14.158 9.612 13.8113 10.6953 13.118 11.666C12.4247 12.6193 11.3933 13.278 10.024 13.642L14.366 21H10.154ZM4.434 11.198H7.476C8.464 11.198 9.20067 10.964 9.686 10.496C10.1713 10.0107 10.414 9.34333 10.414 8.494C10.414 7.662 10.1713 7.02067 9.686 6.57C9.20067 6.102 8.464 5.868 7.476 5.868H4.434V11.198ZM30.8403 13.486C30.8403 14.006 30.8056 14.474 30.7363 14.89H20.2063C20.2929 15.93 20.6569 16.7447 21.2983 17.334C21.9396 17.9233 22.7283 18.218 23.6643 18.218C25.0163 18.218 25.9783 17.6373 26.5503 16.476H30.4763C30.0603 17.8627 29.2629 19.0067 28.0843 19.908C26.9056 20.792 25.4583 21.234 23.7423 21.234C22.3556 21.234 21.1076 20.9307 19.9983 20.324C18.9063 19.7 18.0483 18.8247 17.4243 17.698C16.8176 16.5713 16.5142 15.2713 16.5142 13.798C16.5142 12.3073 16.8176 10.9987 17.4243 9.872C18.0309 8.74533 18.8803 7.87867 19.9723 7.272C21.0643 6.66533 22.3209 6.362 23.7423 6.362C25.1116 6.362 26.3336 6.65667 27.4083 7.246C28.5003 7.83533 29.3409 8.676 29.9303 9.768C30.5369 10.8427 30.8403 12.082 30.8403 13.486ZM27.0703 12.446C27.0529 11.51 26.7149 10.7647 26.0563 10.21C25.3976 9.638 24.5916 9.352 23.6383 9.352C22.7369 9.352 21.9743 9.62933 21.3503 10.184C20.7436 10.7213 20.3709 11.4753 20.2323 12.446H27.0703ZM39.1391 6.362C40.2138 6.362 41.1585 6.57867 41.9731 7.012C42.7878 7.428 43.4291 7.974 43.8971 8.65V6.596H47.5631V21.104C47.5631 22.4387 47.2945 23.626 46.7571 24.666C46.2198 25.7233 45.4138 26.5553 44.3391 27.162C43.2645 27.786 41.9645 28.098 40.4391 28.098C38.3938 28.098 36.7125 27.6213 35.3951 26.668C34.0951 25.7147 33.3585 24.4147 33.1851 22.768H36.7991C36.9898 23.4267 37.3971 23.9467 38.0211 24.328C38.6625 24.7267 39.4338 24.926 40.3351 24.926C41.3925 24.926 42.2505 24.6053 42.9091 23.964C43.5678 23.34 43.8971 22.3867 43.8971 21.104V18.868C43.4291 19.544 42.7791 20.1073 41.9471 20.558C41.1325 21.0087 40.1965 21.234 39.1391 21.234C37.9258 21.234 36.8165 20.922 35.8111 20.298C34.8058 19.674 34.0085 18.7987 33.4191 17.672C32.8471 16.528 32.5611 15.2193 32.5611 13.746C32.5611 12.29 32.8471 10.9987 33.4191 9.872C34.0085 8.74533 34.7971 7.87867 35.7851 7.272C36.7905 6.66533 37.9085 6.362 39.1391 6.362ZM43.8971 13.798C43.8971 12.914 43.7238 12.16 43.3771 11.536C43.0305 10.8947 42.5625 10.4093 41.9731 10.08C41.3838 9.73333 40.7511 9.56 40.0751 9.56C39.3991 9.56 38.7751 9.72467 38.2031 10.054C37.6311 10.3833 37.1631 10.8687 36.7991 11.51C36.4525 12.134 36.2791 12.8793 36.2791 13.746C36.2791 14.6127 36.4525 15.3753 36.7991 16.034C37.1631 16.6753 37.6311 17.1693 38.2031 17.516C38.7925 17.8627 39.4165 18.036 40.0751 18.036C40.7511 18.036 41.3838 17.8713 41.9731 17.542C42.5625 17.1953 43.0305 16.71 43.3771 16.086C43.7238 15.4447 43.8971 14.682 43.8971 13.798ZM52.9642 4.88C52.3229 4.88 51.7856 4.68067 51.3522 4.282C50.9362 3.866 50.7282 3.35467 50.7282 2.748C50.7282 2.14133 50.9362 1.63867 51.3522 1.24C51.7856 0.823999 52.3229 0.615999 52.9642 0.615999C53.6056 0.615999 54.1342 0.823999 54.5502 1.24C54.9836 1.63867 55.2002 2.14133 55.2002 2.748C55.2002 3.35467 54.9836 3.866 54.5502 4.282C54.1342 4.68067 53.6056 4.88 52.9642 4.88ZM54.7582 6.596V21H51.1182V6.596H54.7582ZM64.7505 21.234C63.3639 21.234 62.1159 20.9307 61.0065 20.324C59.8972 19.7 59.0219 18.8247 58.3805 17.698C57.7565 16.5713 57.4445 15.2713 57.4445 13.798C57.4445 12.3247 57.7652 11.0247 58.4065 9.898C59.0652 8.77133 59.9579 7.90467 61.0845 7.298C62.2112 6.674 63.4679 6.362 64.8545 6.362C66.2412 6.362 67.4979 6.674 68.6245 7.298C69.7512 7.90467 70.6352 8.77133 71.2765 9.898C71.9352 11.0247 72.2645 12.3247 72.2645 13.798C72.2645 15.2713 71.9265 16.5713 71.2505 17.698C70.5919 18.8247 69.6905 19.7 68.5465 20.324C67.4199 20.9307 66.1545 21.234 64.7505 21.234ZM64.7505 18.062C65.4092 18.062 66.0245 17.906 66.5965 17.594C67.1859 17.2647 67.6539 16.7793 68.0005 16.138C68.3472 15.4967 68.5205 14.7167 68.5205 13.798C68.5205 12.4287 68.1565 11.38 67.4285 10.652C66.7179 9.90667 65.8425 9.534 64.8025 9.534C63.7625 9.534 62.8872 9.90667 62.1765 10.652C61.4832 11.38 61.1365 12.4287 61.1365 13.798C61.1365 15.1673 61.4745 16.2247 62.1505 16.97C62.8439 17.698 63.7105 18.062 64.7505 18.062ZM85.1786 21L78.5746 12.914V21H74.9346V2.852H78.5746V10.99L85.1786 2.852H89.5726L82.0846 11.848L89.7806 21H85.1786ZM95.8149 2.852V21H92.1749V2.852H95.8149ZM116.735 17.542H109.507L108.311 21H104.489L111.015 2.826H115.253L121.779 21H117.931L116.735 17.542ZM115.747 14.63L113.121 7.038L110.494 14.63H115.747ZM137.452 8.468C137.452 9.43867 137.218 10.3487 136.75 11.198C136.299 12.0473 135.58 12.732 134.592 13.252C133.621 13.772 132.39 14.032 130.9 14.032H127.858V21H124.218V2.852H130.9C132.304 2.852 133.5 3.09467 134.488 3.58C135.476 4.06533 136.212 4.73267 136.698 5.582C137.2 6.43133 137.452 7.39333 137.452 8.468ZM130.744 11.094C131.749 11.094 132.494 10.8687 132.98 10.418C133.465 9.95 133.708 9.3 133.708 8.468C133.708 6.7 132.72 5.816 130.744 5.816H127.858V11.094H130.744ZM153.27 8.468C153.27 9.43867 153.036 10.3487 152.568 11.198C152.118 12.0473 151.398 12.732 150.41 13.252C149.44 13.772 148.209 14.032 146.718 14.032H143.676V21H140.036V2.852H146.718C148.122 2.852 149.318 3.09467 150.306 3.58C151.294 4.06533 152.031 4.73267 152.516 5.582C153.019 6.43133 153.27 7.39333 153.27 8.468ZM146.562 11.094C147.568 11.094 148.313 10.8687 148.798 10.418C149.284 9.95 149.526 9.3 149.526 8.468C149.526 6.7 148.538 5.816 146.562 5.816H143.676V11.094H146.562Z" fill="#008080"/>
</svg>
