<svg width="26" height="27" viewBox="0 0 26 27" fill="none" xmlns="http://www.w3.org/2000/svg">
<g clip-path="url(#clip0_137_6)">
<path d="M13.405 9.10938C10.9695 9.10938 8.98438 11.0811 8.98438 13.504C8.98438 15.9269 10.9695 17.8986 13.405 17.8986C15.8404 17.8986 17.8255 15.9269 17.8255 13.504C17.8255 11.0811 15.8404 9.10938 13.405 9.10938ZM13.405 15.5676C12.2623 15.5676 11.3281 14.6402 11.3281 13.504C11.3281 12.3677 12.2623 11.4404 13.405 11.4404C14.5476 11.4404 15.4818 12.3677 15.4818 13.504C15.4818 14.6402 14.5476 15.5676 13.405 15.5676Z" fill="#737791"/>
<path d="M23.5951 15.514L23.0863 15.2216C23.2948 14.077 23.2948 12.9241 23.0863 11.7795L23.5116 11.5372C24.279 11.0944 24.8378 10.3759 25.0714 9.52368C25.3049 8.66314 25.1798 7.76918 24.7377 7.00054C23.8119 5.41314 21.7684 4.87008 20.1754 5.78075L19.75 6.02304C18.8575 5.27946 17.8483 4.69463 16.7557 4.30196V3.80903C16.7557 1.97933 15.2543 0.492188 13.411 0.492188C11.5677 0.492188 10.0748 1.97933 10.0748 3.80903V4.2936C8.97379 4.68627 7.9729 5.26275 7.07211 6.02304L6.63839 5.77239C5.04532 4.86172 3.00184 5.40478 2.07602 6.99219C1.62563 7.76082 1.50886 8.65478 1.7424 9.51532C1.97594 10.3759 2.52642 11.0944 3.30211 11.5372L3.72748 11.7795C3.52731 12.9241 3.52731 14.077 3.72748 15.23L3.30211 15.4723C2.52642 15.9151 1.97594 16.6336 1.7424 17.4941C1.5172 18.3463 1.63397 19.2403 2.07602 20.0089C2.9935 21.5879 5.03698 22.1394 6.63839 21.2287L7.06377 20.9864C7.95622 21.7383 8.96545 22.3148 10.0581 22.7075V23.2004C10.0664 25.0301 11.5677 26.5173 13.4027 26.5173C15.2377 26.5173 16.739 25.0301 16.739 23.2004V22.7158C17.8316 22.3232 18.8408 21.7467 19.7416 20.9948L20.1754 21.2454C20.951 21.6882 21.8518 21.8052 22.7109 21.5796C23.57 21.3457 24.2957 20.8026 24.7377 20.034C25.6302 18.4883 25.1214 16.4832 23.5951 15.5475V15.514ZM14.3953 21.8386V23.1837C14.3953 23.7268 13.9449 24.1696 13.4027 24.1696C12.8606 24.1696 12.4102 23.7268 12.4102 23.1837V21.8386C12.4102 21.3039 12.0515 20.836 11.526 20.7107C10.2082 20.3682 9.00715 19.6831 8.05631 18.7139C7.83111 18.4883 7.53919 18.363 7.22224 18.363C7.02206 18.363 6.81355 18.4131 6.63839 18.5217L5.46235 19.1985C4.98693 19.4742 4.37806 19.3155 4.10282 18.8476C3.96936 18.622 3.936 18.3547 4.00273 18.104C4.06945 17.845 4.23627 17.6361 4.46981 17.4941L5.64585 16.8257C6.11293 16.5584 6.32978 16.0153 6.18799 15.5057C5.821 14.2023 5.821 12.8238 6.18799 11.5205C6.32978 11.0108 6.10459 10.4678 5.64585 10.2004L4.46981 9.52368C4.23627 9.39 4.07779 9.18113 4.01107 8.92214C3.94434 8.67149 3.97771 8.40414 4.11116 8.17856C4.24461 7.95298 4.46147 7.78589 4.71169 7.71905C4.97025 7.65221 5.23715 7.68563 5.47069 7.81931L6.64673 8.49604C7.10547 8.7634 7.69766 8.67985 8.06465 8.30388C9.01549 7.33473 10.2166 6.64964 11.5344 6.3071C12.0599 6.17342 12.4185 5.70555 12.4185 5.17085V3.82573C12.4185 3.28268 12.8606 2.83987 13.411 2.83987C13.9615 2.83987 14.4036 3.28268 14.4036 3.82573V5.17085C14.4036 5.70555 14.7622 6.16507 15.2794 6.29874C16.5972 6.64129 17.7983 7.32638 18.7491 8.29553C19.1244 8.67149 19.7083 8.75504 20.1754 8.48769L21.3514 7.81095C21.8268 7.53525 22.4357 7.69399 22.7109 8.16185C22.8444 8.38743 22.8778 8.65478 22.811 8.90543C22.7443 9.16442 22.5775 9.37329 22.3356 9.51532L21.1596 10.1921C20.7008 10.4594 20.4756 11.0025 20.6174 11.5121C20.8009 12.1638 20.8927 12.8322 20.8927 13.5005C20.8927 14.1689 20.8009 14.8457 20.6174 15.4973C20.4756 16.007 20.7008 16.55 21.1596 16.8174L22.3356 17.4941C22.5691 17.6278 22.7276 17.8367 22.7943 18.0957C22.8611 18.3463 22.8277 18.6137 22.6943 18.8392C22.419 19.3071 21.8101 19.4742 21.3347 19.1985L20.1587 18.5217C19.6916 18.2544 19.1077 18.3379 18.7324 18.7139C17.7816 19.6831 16.5805 20.3682 15.2627 20.7107C14.7456 20.8444 14.3869 21.3039 14.3869 21.8386H14.3953Z" fill="#737791"/>
</g>
<defs>
<clipPath id="clip0_137_6">
<rect width="26" height="26" fill="white" transform="translate(0 0.5)"/>
</clipPath>
</defs>
</svg>
