<svg width="26" height="26" viewBox="0 0 26 26" fill="none" xmlns="http://www.w3.org/2000/svg">
<g clip-path="url(#clip0_38_104)">
<path d="M16.9168 11.7449H3.15355L7.71613 7.38779C7.95935 7.15273 8.09355 6.84211 8.10194 6.5063C8.11032 6.16209 7.9929 5.84307 7.75806 5.59961C7.52323 5.34776 7.19613 5.21343 6.85226 5.21343C6.50839 5.21343 6.21484 5.33936 5.98 5.55764L1.18258 10.1414C0.419355 10.897 0 11.9128 0 13.0042C0 14.0956 0.427742 15.1114 1.21613 15.8922L5.98 20.4424C6.21484 20.6606 6.53355 20.7698 6.88581 20.7698C7.22129 20.7614 7.54 20.6271 7.75806 20.4004C7.9929 20.1485 8.11871 19.8379 8.11032 19.5021C8.10194 19.1663 7.95935 18.8557 7.71613 18.6206L3.15355 14.2635H16.9168C17.6129 14.2635 18.1748 13.701 18.1748 13.0042C18.1748 12.3074 17.6129 11.7449 16.9168 11.7449ZM13.6206 0H13.5703C12.8742 0 12.329 0.512108 12.3039 1.20052C12.2871 1.54472 12.4045 1.86374 12.6226 2.1072C12.8574 2.35906 13.1677 2.50178 13.4948 2.51857C19.0974 2.78721 23.4839 7.38779 23.4839 13.0042C23.4839 18.6206 19.0974 23.2212 13.4948 23.4814C13.1677 23.4982 12.8574 23.6409 12.6226 23.8928C12.4045 24.1447 12.2871 24.4637 12.3039 24.7995C12.329 25.4711 12.8826 26 13.5619 26H13.6206C20.5568 25.6726 26 19.9638 26 13.0042C26 6.04456 20.5652 0.335809 13.6206 0Z" fill="#737791"/>
</g>
<defs>
<clipPath id="clip0_38_104">
<rect width="26" height="26" fill="white"/>
</clipPath>
</defs>
</svg>
